<?xml version="1.0" encoding="UTF-8" standalone="no" ?>
<!DOCTYPE svg PUBLIC "-//W3C//DTD SVG 1.1//EN" "http://www.w3.org/Graphics/SVG/1.1/DTD/svg11.dtd">
<svg xmlns="http://www.w3.org/2000/svg" xmlns:xlink="http://www.w3.org/1999/xlink" version="1.1" width="1024" height="1024" viewBox="0 0 1024 1024" xml:space="preserve">
<desc>Created with Fabric.js 3.1.0</desc>
<defs>
</defs>
<g transform="matrix(1 0 0 1 512 512)" id="background-logo"  >
<rect style="stroke: none; stroke-width: 1; stroke-dasharray: none; stroke-linecap: butt; stroke-dashoffset: 0; stroke-linejoin: miter; stroke-miterlimit: 4; fill: rgb(255,255,255); fill-opacity: 0; fill-rule: nonzero; opacity: 1;"  paint-order="stroke"  x="-512" y="-512" rx="0" ry="0" width="1024" height="1024" />
</g>
<g transform="matrix(2.932355203291549 0 0 2.932355203291549 512 512)" style="" id="logo-logo"  >
	<g transform="matrix(0.12587481039334145 0 0 -0.12587481039334145 0 0)"  >
<path style="stroke: none; stroke-width: 1; stroke-dasharray: none; stroke-linecap: butt; stroke-dashoffset: 0; stroke-linejoin: miter; stroke-miterlimit: 4; fill: rgb(146,90,6); fill-rule: nonzero; opacity: 1;"  paint-order="stroke"  transform=" translate(-3525.1849999999995, -3644.564999999999)" d="m 4408.42 4591.32 l 124.17 -124.17 l -236.88 -236.88 c -188.54 278.73 -507.57 462.29 -868.64 462.29 c -577.87 0 -1048 -470.13 -1048 -1048 c 0 -60.1 5.4 -118.93 15.2 -176.26 l 187.92 187.92 c 6.31 460.66 382.75 833.5 844.88 833.5 c 305.38 0 573.41 -162.79 721.92 -406.15 l -499.96 -499.96 l -426.3 426.33 l -605.79 -605.82 l -366.74 -366.76 c 27.2 -65.79 60.79 -128.33 100.21 -186.62 l 208.04 208.07 c 188.57 -278.7 507.54 -462.24 868.62 -462.24 c 577.86 0 1047.99 470.13 1047.99 1047.99 c 0 59.94 -5.38 118.6 -15.11 175.76 l -188.04 -188.01 c -6.62 -460.4 -382.92 -832.9 -844.84 -832.9 c -305.36 0 -573.36 162.76 -721.9 406.1 l 517.56 517.55 l 426.3 -426.33 l 588.19 588.19 l 0.11 -0.39 l 158.72 158.75 l -0.14 0.37 l 280.09 280.08 l 124.17 -124.17 v 391.76 h -391.75" stroke-linecap="round" />
</g>
</g>
<g transform="matrix(1.5745007680491552 0 0 1.5745007680491552 512 733.5125768049155)"  >
<path style="stroke: none; stroke-width: 0; stroke-dasharray: none; stroke-linecap: butt; stroke-dashoffset: 0; stroke-linejoin: miter; stroke-miterlimit: 4; fill: rgb(245,156,20); fill-rule: nonzero; opacity: 1;"  paint-order="stroke"  transform=" translate(0, 0)" d="M 0 0 L 0 0 Q 0 0 0 0 L 0 0 L 0 0 Q 0 0 0 0 L 0 0 L 0 0 Q 0 0 0 0 L 0 0 L 0 0 L 0 0 Q 0 0 0 0 L 0 0 L 0 0 Q 0 0 0 0 L 0 0 Z M 0 0 L 0 0 Q 0 0 0 0 Q 0 0 0 0 Q 0 0 0 0 L 0 0 L 0 0 Q 0 0 0 0 Q 0 0 0 0 Q 0 0 0 0 L 0 0 Q 0 0 0 0 Q 0 0 0 0 Q 0 0 0 0 L 0 0 L 0 0 Q 0 0 0 0 Q 0 0 0 0 Q 0 0 0 0 Z M 0 0 L 0 0 Q 0 0 0 0 Q 0 0 0 0 L 0 0 L 0 0 Q 0 0 0 0 Q 0 0 0 0 L 0 0 Q 0 0 0 0 Q 0 0 0 0 L 0 0 L 0 0 Q 0 0 0 0 Q 0 0 0 0 Z M 0 0 L 0 0 Q 0 0 0 0 Q 0 0 0 0 Q 0 0 0 0 L 0 0 L 0 0 Q 0 0 0 0 Q 0 0 0 0 Q 0 0 0 0 L 0 0 Q 0 0 0 0 Q 0 0 0 0 Q 0 0 0 0 L 0 0 L 0 0 Q 0 0 0 0 L 0 0 L 0 0 Q 0 0 0 0 L 0 0 L 0 0 Q 0 0 0 0 Q 0 0 0 0 L 0 0 Q 0 0 0 0 Q 0 0 0 0 L 0 0 L 0 0 Q 0 0 0 0 Q 0 0 0 0 L 0 0 Q 0 0 0 0 Q 0 0 0 0 L 0 0 L 0 0 L 0 0 Q 0 0 0 0 L 0 0 L 0 0 Q 0 0 0 0 L 0 0 L 0 0 Q 0 0 0 0 L 0 0 L 0 0 Q 0 0 0 0 Q 0 0 0 0 Q 0 0 0 0 Z M 0 0 L 0 0 Q 0 0 0 0 Q 0 0 0 0 Q 0 0 0 0 L 0 0 L 0 0 Q 0 0 0 0 Q 0 0 0 0 Q 0 0 0 0 L 0 0 Q 0 0 0 0 Q 0 0 0 0 Q 0 0 0 0 L 0 0 L 0 0 Q 0 0 0 0 Q 0 0 0 0 Q 0 0 0 0 Z M 0 0 L 0 0 Q 0 0 0 0 Q 0 0 0 0 L 0 0 L 0 0 Q 0 0 0 0 Q 0 0 0 0 L 0 0 Q 0 0 0 0 Q 0 0 0 0 L 0 0 L 0 0 Q 0 0 0 0 Q 0 0 0 0 Z M 0 0 L 0 0 Q 0 0 0 0 L 0 0 L 0 0 L 0 0 Q 0 0 0 0 L 0 0 L 0 0 Q 0 0 0 0 L 0 0 L 0 0 Q 0 0 0 0 L 0 0 L 0 0 Q 0 0 0 0 L 0 0 L 0 0 L 0 0 Q 0 0 0 0 L 0 0 Z M 0 0 L 0 0 Q 0 0 0 0 L 0 0 L 0 0 Q 0 0 0 0 L 0 0 L 0 0 Q 0 0 0 0 L 0 0 L 0 0 Q 0 0 0 0 L 0 0 L 0 0 L 0 0 L 0 0 Q 0 0 0 0 L 0 0 L 0 0 Q 0 0 0 0 L 0 0 L 0 0 L 0 0 L 0 0 Q 0 0 0 0 L 0 0 L 0 0 Q 0 0 0 0 L 0 0 Z M 0 0 L 0 0 Q 0 0 0 0 L 0 0 L 0 0 L 0 0 Q 0 0 0 0 L 0 0 L 0 0 Q 0 0 0 0 L 0 0 L 0 0 L 0 0 Q 0 0 0 0 L 0 0 L 0 0 Q 0 0 0 0 L 0 0 L 0 0 L 0 0 Q 0 0 0 0 L 0 0 L 0 0 Q 0 0 0 0 L 0 0 L 0 0 L 0 0 Q 0 0 0 0 L 0 0 Z M 0 0 L 0 0 Q 0 0 0 0 L 0 0 L 0 0 L 0 0 Q 0 0 0 0 L 0 0 L 0 0 Q 0 0 0 0 L 0 0 L 0 0 Q 0 0 0 0 L 0 0 L 0 0 Q 0 0 0 0 L 0 0 L 0 0 L 0 0 Q 0 0 0 0 L 0 0 Z M 0 0 L 0 0 Q 0 0 0 0 L 0 0 L 0 0 Q 0 0 0 0 L 0 0 L 0 0 Q 0 0 0 0 L 0 0 L 0 0 L 0 0 L 0 0 Q 0 0 0 0 L 0 0 L 0 0 Q 0 0 0 0 L 0 0 L 0 0 Q 0 0 0 0 L 0 0 L 0 0 Q 0 0 0 0 L 0 0 L 0 0 L 0 0 L 0 0 Q 0 0 0 0 L 0 0 Z M 0 0 L 0 0 Q 0 0 0 0 L 0 0 L 0 0 Q 0 0 0 0 L 0 0 L 0 0 Q 0 0 0 0 L 0 0 L 0 0 Q 0 0 0 0 L 0 0 L 0 0 L 0 0 L 0 0 Q 0 0 0 0 L 0 0 L 0 0 Q 0 0 0 0 L 0 0 L 0 0 L 0 0 L 0 0 Q 0 0 0 0 L 0 0 L 0 0 Q 0 0 0 0 L 0 0 Z M 0 0 L 0 0 Q 0 0 0 0 L 0 0 L 0 0 Q 0 0 0 0 L 0 0 L 0 0 Q 0 0 0 0 Q 0 0 0 0 Q 0 0 0 0 L 0 0 Q 0 0 0 0 Q 0 0 0 0 Q 0 0 0 0 L 0 0 Q 0 0 0 0 L 0 0 L 0 0 Q 0 0 0 0 L 0 0 L 0 0 Q 0 0 0 0 L 0 0 L 0 0 Q 0 0 0 0 Q 0 0 0 0 L 0 0 L 0 0 L 0 0 Q 0 0 0 0 L 0 0 Z M 0 0 L 0 0 L 0 0 Q 0 0 0 0 Q 0 0 0 0 L 0 0 Q 0 0 0 0 Q 0 0 0 0 L 0 0 L 0 0 Z M 0 0 L 0 0 Q 0 0 0 0 L 0 0 L 0 0 Q 0 0 0 0 L 0 0 L 0 0 Q 0 0 0 0 L 0 0 L 0 0 Q 0 0 0 0 L 0 0 L 0 0 L 0 0 L 0 0 Q 0 0 0 0 L 0 0 L 0 0 Q 0 0 0 0 L 0 0 L 0 0 L 0 0 L 0 0 Q 0 0 0 0 L 0 0 L 0 0 Q 0 0 0 0 L 0 0 Z" stroke-linecap="round" />
</g>
</svg>